<svg t="1654592401951" class="icon" viewBox="0 0 1024 1024" version="1.1" xmlns="http://www.w3.org/2000/svg" p-id="3967"
	width="200" height="200">
	<path
		d="M640 85.333333a42.666667 42.666667 0 0 1 42.666667 42.666667v128h42.666666a128 128 0 0 1 128 128v128a256 256 0 0 1-256 256h-42.666666v128a42.666667 42.666667 0 0 1-85.333334 0v-128h-42.666666a256 256 0 0 1-256-256V384a128 128 0 0 1 128-128h42.666666V128a42.666667 42.666667 0 1 1 85.333334 0v128h170.666666V128a42.666667 42.666667 0 0 1 42.666667-42.666667z m85.333333 256H298.666667a42.666667 42.666667 0 0 0-42.666667 42.666667v128a170.666667 170.666667 0 0 0 170.666667 170.666667h170.666666a170.666667 170.666667 0 0 0 170.666667-170.666667V384a42.666667 42.666667 0 0 0-42.666667-42.666667z"
		p-id="3968"></path>
</svg>
