<svg t="1654592345543" class="icon" viewBox="0 0 1024 1024" version="1.1" xmlns="http://www.w3.org/2000/svg" p-id="3213"
	width="200" height="200">
	<path
		d="M944.14 718.412l-322.818-266.05c17.037-37.016 26.01-77.727 26.01-118.662 0-156.207-127.07-283.313-283.314-283.313-28.045 0-55.712 3.996-82.25 12.062l-30.854 9.35 175.3 175.355c7.464 7.388 11.497 17.265 11.497 27.82s-4.033 20.43-11.497 27.894l-92.993 93.03c-14.816 14.777-40.88 14.853-55.713 0L102.19 220.617l-9.33 30.758c-8.066 26.612-12.156 54.281-12.156 82.325 0 156.132 127.106 283.24 283.314 283.24 41.011 0 81.685-8.895 118.663-25.935l140.677 172.34c0.678 2.713 1.811 5.277 3.618 7.538 1.885 2.412 4.298 4.222 6.936 5.43L747.6 915.554c14.176 16.512 34.53 26.086 55.79 26.086 19.526 0 38.035-7.841 52.17-21.937l93.029-93.031c14.928-14.928 22.692-34.455 21.864-54.959-0.755-20.506-9.99-39.354-26.311-53.3m-22.844 80.967l-93.03 93.031c-14.4 14.324-38.374 13.27-51.077-1.659l-53.714-65.739 64.685-52.168c8.33-6.711 9.572-18.923 2.94-27.216-6.712-8.293-18.848-9.574-27.141-2.94l-64.91 52.393-28.272-34.677 58.127-46.895c8.292-6.708 9.613-18.845 2.865-27.139-6.634-8.367-18.81-9.65-27.102-2.94l-58.313 47.044-153.571-188.097-13.947 7.388c-35.132 18.772-74.786 28.573-114.818 28.573-134.947 0-244.714-109.692-244.714-244.64 0-12.966 0.998-25.782 2.996-38.448l127.917 127.936c29.346 29.4 80.93 29.4 110.295 0l92.993-93.03c14.738-14.702 22.807-34.303 22.807-55.185 0-20.807-8.07-40.484-22.807-55.11l-127.9-127.937a251.186 251.186 0 0 1 38.411-2.941c134.948 0 244.715 109.69 244.715 244.713 0 39.957-9.875 79.688-28.573 114.742l-7.388 13.948 346.565 285.577c7.728 6.634 12.215 15.606 12.553 25.256 0.414 9.65-3.393 18.924-10.593 26.16"
		p-id="3214"></path>
</svg>
