<svg data-name="wink-icon" xmlns="http://www.w3.org/2000/svg" xmlns:xlink="http://www.w3.org/1999/xlink"
	viewBox="0 0 590 590">
	<defs>
		<linearGradient id="prefix__b" x1="24.93" y1="125.12" x2="497.49" y2="306.51" gradientUnits="userSpaceOnUse">
			<stop offset="0" stop-color="#48c7ff" />
			<stop offset="1" stop-color="#ad46fd" />
		</linearGradient>
		<linearGradient id="prefix__a" x1="141.65" y1="212.06" x2="232.71" y2="212.06" gradientUnits="userSpaceOnUse">
			<stop offset="0" stop-color="#ffdc38" />
			<stop offset="1" stop-color="#ffb40d" />
		</linearGradient>
		<linearGradient id="prefix__c" x1="353.79" y1="187.61" x2="434.81" y2="187.61" xlink:href="#prefix__a" />
		<linearGradient id="prefix__d" x1="354.67" y1="233.17" x2="434.28" y2="233.17" xlink:href="#prefix__a" />
	</defs>
	<path
		d="M28.23 131.65a19.5 19.5 0 01-.1-2.29c.08-6.21 1.63-33.49 22.13-49C64 69.91 90.81 66.83 105.66 68.75c14 1.8 92.47 35.43 180 39.13.32 0 3.94.18 4.26.17C383.2 105 414 85 415.7 85c.27 0 44.52-15.89 44.76-16 10.85-4.82 104-6 78.22 89-25.23 93.2-59.94 196.06-63.57 206.77-.23.67-.48 1.3-.78 2-5.19 11.2-52.89 106.41-128.31-4.37-.33-.48-.64-1-.93-1.49-11.2-19.69-21.67-36.35-30.07-49.08-8.67-13.15-35.66-10.66-43.69 2.88l-28 47.43s-68 122.85-121.89 3C68 246.26 32.29 169.68 28.23 131.65z"
		fill="url(#prefix__b)" />
	<path
		d="M187.18 257.56a47 47 0 0032.17-13.33c7.89-7.89 13.84-20.84 13.33-32.17-.53-11.77-4.39-24-13.33-32.17s-19.84-13.33-32.17-13.33A46.93 46.93 0 00155 179.89c-7.89 7.89-13.83 20.83-13.32 32.17.53 11.77 4.39 24 13.32 32.17s19.85 13.33 32.18 13.33z"
		fill="url(#prefix__a)" />
	<path
		d="M424.1 148.06L346.83 197c-7.73 4.89-11.53 15.8-6.28 23.94 5 7.74 15.67 11.52 23.94 6.28l77.28-48.89c7.73-4.89 11.52-15.81 6.27-23.95-5-7.73-15.66-11.51-23.94-6.27z"
		fill="url(#prefix__c)" />
	<path
		d="M347.78 227.72a490.54 490.54 0 0080.5 42.62c8.47 3.55 19.62-3.83 21.53-12.23 2.33-10.24-3.16-17.71-12.22-21.52 2.45 1-2.62-1.14-2.55-1.11l-5-2.23q-4.59-2.08-9.14-4.26-9.54-4.58-18.87-9.59c-12.52-6.73-24.7-14.07-36.57-21.9-7.66-5.05-19.69-1.77-23.94 6.28-4.64 8.77-1.9 18.55 6.28 23.94z"
		fill="url(#prefix__d)" />
</svg>
