<svg t="1652420066105" class="icon" viewBox="0 0 1024 1024" version="1.1" xmlns="http://www.w3.org/2000/svg" p-id="3280" width="200" height="200"><path d="M0 512c0 282.4 229.6 512 512 512s512-229.6 512-512S794.4 0 512 0 0 229.6 0 512z" p-id="3281"></path><path d="M709.6 824H315.2c-36 0-65.6-29.6-65.6-65.6 0-117.6 95.2-213.6 213.6-213.6h98.4c117.6 0 213.6 95.2 213.6 213.6 0 36-28.8 65.6-65.6 65.6zM512 528c-90.4 0-164-73.6-164-164S421.6 200 512 200s164 73.6 164 164C676.8 455.2 602.4 528 512 528z" p-id="3282"></path><path d="M709.6 824H315.2c-36 0-65.6-29.6-65.6-65.6 0-117.6 95.2-213.6 213.6-213.6h98.4c117.6 0 213.6 95.2 213.6 213.6 0 36-28.8 65.6-65.6 65.6zM512.8 528c-90.4 0-164-73.6-164-164C348 273.6 421.6 200 512 200s164 73.6 164 164C676.8 455.2 602.4 528 512.8 528z" p-id="3283"></path></svg>
