<svg t="1654585844875" class="icon" viewBox="0 0 1024 1024" version="1.1" xmlns="http://www.w3.org/2000/svg" p-id="2246"
	width="200" height="200">
	<path d="M0 0h1024v1024H0z" fill="#FFFFFF" p-id="2247"></path>
	<path
		d="M598.528 251.136l-22.496-22.72 22.496 22.72z m-0.448 170.176l22.624-22.624-22.624 22.624z m-203.808 18.304l22.656 22.624 13.12-13.12-4.896-17.92-30.848 8.416z m-258.88 258.912l22.592 22.624-22.624-22.624z m190.048 190.08l-22.624-22.624 22.624 22.624z m258.464-258.464l8.544-30.848-17.984-4.992-13.184 13.216 22.624 22.624z m183.904-208.832l-22.624-22.624 22.624 22.624z m157.6-96.224l-31.616 4.992 31.616-4.992z m-48.224-13.12l-22.624-22.656 22.624 22.624z m-172.704-165.632l22.496 22.72-22.496-22.72z m-13.792-48.256l-3.968 31.776 3.968-31.776zM576 228.384a152 152 0 0 0-0.576 215.552l45.248-45.248a88 88 0 0 1 0.32-124.8l-44.992-45.504z m105.92-104.8l-105.92 104.8 45.024 45.504 105.92-104.8-45.024-45.504zM656.768 128c10.144 0 20.16 0.64 29.952 1.856l7.904-63.52A306.656 306.656 0 0 0 656.768 64v64z m-240 240a240 240 0 0 1 240-240V64a304 304 0 0 0-304 304h64z m8.384 63.2a240.416 240.416 0 0 1-8.384-63.2h-64c0 27.648 3.712 54.496 10.656 80l61.76-16.8z m-267.168 289.952l258.944-258.912-45.28-45.248-258.88 258.912 45.216 45.248z m0 144.832a102.4 102.4 0 0 1 0-144.832l-45.248-45.248a166.4 166.4 0 0 0 0 235.328l45.248-45.248z m144.832 0a102.4 102.4 0 0 1-144.832 0l-45.248 45.248a166.4 166.4 0 0 0 235.328 0l-45.248-45.248z m258.464-258.496l-258.464 258.496 45.248 45.248 258.464-258.464-45.248-45.28z m95.488 0.512a240.192 240.192 0 0 1-64.32-8.704l-17.088 61.664a304.32 304.32 0 0 0 81.408 11.04v-64z m240-240a240 240 0 0 1-240 240v64a304 304 0 0 0 304-304h-64z m-2.976-37.888c1.952 12.32 2.976 24.96 2.976 37.888h64c0-16.288-1.28-32.32-3.776-47.936l-63.2 10.016z m-103.36 113.824l109.376-109.376-45.248-45.248-109.376 109.376 45.248 45.248z m-214.976 0a152 152 0 0 0 214.976 0l-45.248-45.248a88 88 0 0 1-124.48 0l-45.248 45.248z m381.536-123.84a57.664 57.664 0 0 0-42.848-47.488 62.304 62.304 0 0 0-59.584 16.704l45.248 45.248c0.224-0.224-0.32 0.384-1.696 0a6.016 6.016 0 0 1-2.784-1.728 5.824 5.824 0 0 1-1.536-2.72l63.2-10.048z m-230.016-151.04c16.736-16.544 22.4-39.776 16.768-60.448a57.472 57.472 0 0 0-49.12-42.24l-7.904 63.488a5.984 5.984 0 0 1-2.848-1.504 6.272 6.272 0 0 1-1.92-2.944c-0.384-1.472 0.256-2.08 0-1.824l45.024 45.504z"
		fill="#000000" p-id="2248"></path>
</svg>
